<svg width="66" height="66" viewBox="0 0 66 66" fill="none" xmlns="http://www.w3.org/2000/svg">
<path d="M35.6562 0.5L35.8984 0.512695C37.0907 0.639408 37.9697 1.69013 37.9697 2.87891V8.95508C40.7234 9.58191 43.3106 10.6937 45.623 12.1504L49.875 7.83887L49.877 7.83691C50.3302 7.38368 50.9823 7.12308 51.5781 7.10742H51.5791C52.1837 7.09285 52.781 7.31233 53.2402 7.77148L57.71 12.2412C58.6448 13.176 58.5356 14.7141 57.6455 15.6045L53.3291 19.9199C54.7397 22.169 55.8121 24.6558 56.4561 27.3174H63.1211C64.3892 27.3174 65.5 28.3181 65.5 29.6318V35.9795C65.5 37.2932 64.3891 38.2939 63.1211 38.2939H56.5283C55.9032 41.1119 54.8164 43.7692 53.3281 46.1436L57.6455 50.46C58.5348 51.3495 58.6456 52.8231 57.71 53.7588L53.2402 58.2285C52.3053 59.1634 50.7672 59.0533 49.877 58.1631L45.626 53.9121C43.3097 55.3712 40.7131 56.4205 37.9697 57.0439V63.1865C37.9696 64.4774 36.9471 65.4998 35.6562 65.5H29.3076C28.0165 65.5 26.9943 64.4775 26.9941 63.1865V57.0439C24.2474 56.4203 21.6582 55.3713 19.3369 53.9121L15.0215 58.2285C14.1086 59.1411 12.6366 59.1411 11.7236 58.2285L7.25391 53.7588C6.34084 52.8458 6.34096 51.3729 7.25391 50.46L11.5684 46.1445C10.0741 43.7697 8.99274 41.1114 8.37012 38.2939H2.81348C1.52246 38.2938 0.499974 37.2706 0.5 35.9795V29.6318C0.5 28.3407 1.52245 27.3175 2.81348 27.3174H8.44141C9.07879 24.6402 10.141 22.1155 11.5684 19.8545L7.25391 15.54C6.34182 14.6279 6.34039 13.2217 7.25098 12.3086L11.7207 7.77441L11.7236 7.77148C12.1895 7.30589 12.7981 7.10751 13.3721 7.10742C13.9461 7.10742 14.5555 7.30563 15.0215 7.77148L19.4023 12.1523C21.704 10.7089 24.2529 9.58117 26.9941 8.95508V2.87891C26.9941 1.61083 27.9939 0.500012 29.3076 0.5H35.6562Z" stroke="#44FF57"/>
<mask id="mask0_204_95" style="mask-type:alpha" maskUnits="userSpaceOnUse" x="1" y="1" width="64" height="64">
<path d="M29.3076 1C28.2926 1 27.4939 1.86352 27.4939 2.87854V9.35628C24.5325 9.97569 21.7879 11.1992 19.3319 12.7895L14.668 8.12551C14.3092 7.76665 13.8343 7.60729 13.3724 7.60729C12.9106 7.60729 12.4358 7.76669 12.0769 8.12551L7.60727 12.6599C6.8895 13.3776 6.88956 14.4685 7.60727 15.1862L12.2065 19.7854C10.6301 22.1903 9.48024 24.9162 8.83804 27.8178H2.81376C1.79874 27.8178 1 28.6165 1 29.6316V35.9798C0.999979 36.9948 1.79872 37.7935 2.81376 37.7935H8.77326C9.39556 40.8372 10.5612 43.6974 12.2065 46.2146L7.60727 50.8138C6.88956 51.5315 6.8895 52.6871 7.60727 53.4049L12.0769 57.8745C12.7946 58.5922 13.9502 58.5922 14.668 57.8745L19.2672 53.2753C21.7303 54.8852 24.5198 56.0162 27.4939 56.6437V63.1862C27.4939 64.2013 28.2926 65 29.3076 65H35.6558C36.6708 65 37.4696 64.2013 37.4696 63.1862V56.6437C40.4401 56.0162 43.2402 54.8852 45.6963 53.2753L50.2307 57.8097C50.9484 58.5274 52.1688 58.5923 52.8865 57.8745L57.3562 53.4049C58.0739 52.6871 58.0091 51.5315 57.2915 50.8138L52.6923 46.2146C54.3303 43.6974 55.5008 40.8372 56.1255 37.7935H63.1215C64.1365 37.7935 65 36.9948 65 35.9798V29.6316C65 28.6165 64.1365 27.8178 63.1215 27.8178H56.0607C55.4124 24.9325 54.2502 22.2492 52.6923 19.8502L57.2915 15.251C58.0092 14.5333 58.074 13.3129 57.3562 12.5951L52.8865 8.12551C52.5277 7.76663 52.0643 7.59585 51.591 7.60729C51.1178 7.61972 50.5895 7.83141 50.2307 8.19028L45.6963 12.7895C43.2359 11.1839 40.446 9.97955 37.4696 9.35628V2.87854C37.4696 1.86352 36.6708 1 35.6558 1H29.3076Z" fill="black"/>
</mask>
<g mask="url(#mask0_204_95)">
<path d="M29.3076 1C28.2926 1 27.4939 1.86352 27.4939 2.87854V9.35628C24.5325 9.97569 21.7879 11.1992 19.3319 12.7895L14.668 8.12551C14.3092 7.76665 13.8343 7.60729 13.3724 7.60729C12.9106 7.60729 12.4358 7.76669 12.0769 8.12551L7.60727 12.6599C6.8895 13.3776 6.88956 14.4685 7.60727 15.1862L12.2065 19.7854C10.6301 22.1903 9.48024 24.9162 8.83804 27.8178H2.81376C1.79874 27.8178 1 28.6165 1 29.6316V35.9798C0.999979 36.9948 1.79872 37.7935 2.81376 37.7935H8.77326C9.39556 40.8372 10.5612 43.6974 12.2065 46.2146L7.60727 50.8138C6.88956 51.5315 6.8895 52.6871 7.60727 53.4049L12.0769 57.8745C12.7946 58.5922 13.9502 58.5922 14.668 57.8745L19.2672 53.2753C21.7303 54.8852 24.5198 56.0162 27.4939 56.6437V63.1862C27.4939 64.2013 28.2926 65 29.3076 65H35.6558C36.6708 65 37.4696 64.2013 37.4696 63.1862V56.6437C40.4401 56.0162 43.2402 54.8852 45.6963 53.2753L50.2307 57.8097C50.9484 58.5274 52.1688 58.5923 52.8865 57.8745L57.3562 53.4049C58.0739 52.6871 58.0091 51.5315 57.2915 50.8138L52.6923 46.2146C54.3303 43.6974 55.5008 40.8372 56.1255 37.7935H63.1215C64.1365 37.7935 65 36.9948 65 35.9798V29.6316C65 28.6165 64.1365 27.8178 63.1215 27.8178H56.0607C55.4124 24.9325 54.2502 22.2492 52.6923 19.8502L57.2915 15.251C58.0092 14.5333 58.074 13.3129 57.3562 12.5951L52.8865 8.12551C52.5277 7.76663 52.0643 7.59585 51.591 7.60729C51.1178 7.61972 50.5895 7.83141 50.2307 8.19028L45.6963 12.7895C43.2359 11.1839 40.446 9.97955 37.4696 9.35628V2.87854C37.4696 1.86352 36.6708 1 35.6558 1H29.3076Z" fill="#44FF57"/>
</g>
</svg>
