<svg width="38" height="38" viewBox="0 0 38 38" fill="none" xmlns="http://www.w3.org/2000/svg">
<path d="M19.5 3C24.1944 3 28 6.80558 28 11.5V14.5H31V33.5H8V14.5H24V11.5C24 9.01472 21.9853 7 19.5 7C17.0147 7 15 9.01472 15 11.5H11C11 6.80558 14.8056 3 19.5 3ZM19.6445 19.5C17.9674 19.5003 16.6077 20.86 16.6074 22.5371V22.6162C16.6074 23.6984 17.1753 24.6456 18.0273 25.1836L16.6074 29.5H22.6826L21.2617 25.1836C22.1142 24.6457 22.6826 23.6987 22.6826 22.6162V22.5371C22.6823 20.8598 21.322 19.5 19.6445 19.5Z" fill="#25FF7E"/>
</svg>
